<svg width="145" height="156" viewBox="0 0 145 156" fill="none" xmlns="http://www.w3.org/2000/svg">
<path opacity="0.8" fill-rule="evenodd" clip-rule="evenodd" d="M114.621 77.8957C114.621 52.7807 95.7248 32.6595 72.6893 32.6595L72.6893 0.728031C112.513 0.728029 144.573 35.4089 144.573 77.8957C144.573 120.383 112.513 155.063 72.6893 155.063L72.6893 123.132C95.7248 123.132 114.621 103.011 114.621 77.8957Z" fill="#262146"/>
<path fill-rule="evenodd" clip-rule="evenodd" d="M42.7377 77.8957C42.7377 52.7807 23.841 32.6595 0.805536 32.6595L0.805534 0.728031C40.6289 0.728029 72.6893 35.4089 72.6893 77.8957C72.6893 120.383 40.6289 155.063 0.805541 155.063L0.805539 123.132C23.841 123.132 42.7377 103.011 42.7377 77.8957Z" fill="#262146"/>
<path d="M72.6893 155.063H0.805511V123.289H72.6893V155.063Z" fill="#514D6B"/>
<path d="M72.6893 32.5029H0.805511V0.728001H72.6893V32.5029Z" fill="#FF3E3E"/>
</svg>
